<?xml version="1.0" encoding="UTF-8"?>
<svg width="193px" height="61px" viewBox="0 0 193 61" version="1.1" xmlns="http://www.w3.org/2000/svg" xmlns:xlink="http://www.w3.org/1999/xlink">
    <title>ACT1</title>
    <g id="Onboarding" stroke="none" stroke-width="1" fill="none" fill-rule="evenodd">
        <g id="Artboard" transform="translate(-107.000000, -75.000000)" fill="#EC534B" fill-rule="nonzero">
            <path d="M126.66613,136 L129.84813,126.712 L152.12213,126.712 L155.30413,136 L174.05213,136 L150.05813,75.8 L131.91213,75.8 L107.91813,136 L126.66613,136 Z M147.90813,114.242 L134.14813,114.242 L141.02813,94.118 L147.90813,114.242 Z M216.533065,136 L216.533065,122.24 L199.333065,122.24 C197.097065,122.24 195.520398,121.81 194.603065,120.95 C193.685732,120.09 193.227065,118.628 193.227065,116.564 L193.227065,116.564 L193.227065,95.322 C193.227065,93.2006667 193.685732,91.71 194.603065,90.85 C195.520398,89.99 197.097065,89.56 199.333065,89.56 L199.333065,89.56 L216.533065,89.56 L216.533065,75.8 L195.893065,75.8 C191.019732,75.8 187.135398,76.359 184.240065,77.477 C181.344732,78.595 179.252065,80.3723333 177.962065,82.809 C176.672065,85.2456667 176.027065,88.5566667 176.027065,92.742 L176.027065,92.742 L176.027065,119.144 C176.027065,123.272 176.672065,126.554333 177.962065,128.991 C179.252065,131.427667 181.344732,133.205 184.240065,134.323 C187.135398,135.441 191.019732,136 195.893065,136 L195.893065,136 L216.533065,136 Z M254.112,136 L254.112,89.56 L268.216,89.56 L268.216,75.8 L222.808,75.8 L222.808,89.56 L236.912,89.56 L236.912,136 L254.112,136 Z M299.860935,136 L299.860935,79.756 C299.860935,78.38 299.559935,77.3766667 298.957935,76.746 C298.355935,76.1153333 297.424268,75.8 296.162935,75.8 L296.162935,75.8 L288.422935,75.8 L270.276935,89.56 L278.016935,99.88 L282.660935,96.268 L282.660935,136 L299.860935,136 Z" id="ACT1"></path>
        </g>
    </g>
</svg>